<?xml version="1.0" encoding="utf-8"?>
<!-- Generator: Adobe Illustrator 24.3.0, SVG Export Plug-In . SVG Version: 6.00 Build 0)  -->
<svg version="1.1" id="Layer_1" xmlns="http://www.w3.org/2000/svg" xmlns:xlink="http://www.w3.org/1999/xlink" x="0px" y="0px"
	 viewBox="0 0 500 500" style="enable-background:new 0 0 500 500;" xml:space="preserve">
<style type="text/css">
	.st0{fill:#FFFFFF;}
</style>
<g>
	<path class="st0" d="M0,0v249.4c0-3.53,0.21-7.06,0.62-10.57v1.18c4.94-41.4,40.15-73.51,82.88-73.51l124.5-0.01
		c0,0,0-116.58,0-162.99L500,250V0H0z"/>
</g>
<path class="st0" d="M368.18,319.78c13.47-4.2,23.65-8.85,30.57-13.94c12.37-9.07,18.56-21.07,18.56-36
	c0-14.49-6.14-26.93-18.4-37.33c-20.37-16.93-55-25.6-103.87-26.05H101.35v244.56h180.58c20.37,0,39.25-1.1,56.64-3.32
	c17.4-2.21,32.49-6.3,45.29-12.28c11.36-5.2,20.82-11.61,28.39-19.25c11.89-11.5,17.84-24.49,17.84-38.99
	c0-14.04-5.2-25.99-15.61-35.84C404.07,331.51,388.63,324.32,368.18,319.78z M181.3,248.94h87.17c19.2,0,34.99,1.27,47.37,3.81
	c14.35,3.65,21.53,11.17,21.53,22.57c0,10.29-5.43,17.45-16.28,21.49c-10.86,4.04-24.98,6.05-42.38,6.06H181.3V248.94z
	 M319.19,404.24c-9.68,2.88-23.21,4.31-40.59,4.31h-97.3v-65.21h98.64c17.2,0.11,30.55,1.5,40.05,4.15
	c17.02,4.75,25.54,13.49,25.54,26.21C345.53,388.75,336.75,398.93,319.19,404.24z"/>
</svg>
