<?xml version="1.0" encoding="utf-8"?>
<!-- Generator: Adobe Illustrator 24.3.0, SVG Export Plug-In . SVG Version: 6.00 Build 0)  -->
<svg version="1.1" id="Layer_1" xmlns="http://www.w3.org/2000/svg" xmlns:xlink="http://www.w3.org/1999/xlink" x="0px" y="0px"
	 viewBox="0 0 500 500" style="enable-background:new 0 0 500 500;" xml:space="preserve">
<style type="text/css">
	.st0{fill:#FFFFFF;}
</style>
<path class="st0" d="M250.85,382.36l-65.39-173.91H76.22v221.18h69.95v-149.6c0-4.3-0.09-10.33-0.24-18.08
	c-0.17-7.75-0.24-13.73-0.24-17.93l67.59,185.61h72.96l68.08-185.61c0,4.2-0.08,10.18-0.24,17.93c-0.17,7.75-0.24,13.78-0.24,18.08
	v149.6h69.95V208.45H315.76L250.85,382.36z"/>
<g>
	<path class="st0" d="M0,0v249.4c0-45.6,36.9-82.5,82.5-82.5h126.3c0-54.1,0-108.4,0-163.5L500,250V0H0z"/>
</g>
</svg>
