<?xml version="1.0" encoding="utf-8"?>
<!-- Generator: Adobe Illustrator 24.3.0, SVG Export Plug-In . SVG Version: 6.00 Build 0)  -->
<svg version="1.1" id="Layer_1" xmlns="http://www.w3.org/2000/svg" xmlns:xlink="http://www.w3.org/1999/xlink" x="0px" y="0px"
	 viewBox="0 0 500 500" style="enable-background:new 0 0 500 500;" xml:space="preserve">
<style type="text/css">
	.st0{fill:#FFFFFF;}
</style>
<g>
	<path class="st0" d="M319.99,280.73c-9.5-4.35-22.85-6.62-40.05-6.8H181.3v106.86h97.3c17.38,0,30.91-2.35,40.59-7.07
		c17.56-8.7,26.34-25.38,26.34-50.03C345.53,302.84,337.01,288.52,319.99,280.73z"/>
	<path class="st0" d="M0,0v500h500V0H0z M412.25,393.29c-7.57,12.51-17.03,23.02-28.39,31.54c-12.8,9.79-27.89,16.5-45.29,20.12
		c-17.39,3.63-36.27,5.44-56.64,5.44H101.35V49.6h193.69c48.87,0.73,83.5,14.95,103.87,42.69c12.26,17.04,18.4,37.43,18.4,61.18
		c0,24.47-6.19,44.14-18.56,59c-6.92,8.34-17.1,15.95-30.57,22.84c20.45,7.43,35.89,19.22,46.3,35.35
		c10.41,16.14,15.61,35.72,15.61,58.73C430.09,353.15,424.14,374.45,412.25,393.29z"/>
	<path class="st0" d="M321.09,197.66c10.85-6.62,16.28-18.35,16.28-35.21c0-18.67-7.18-31-21.53-36.98
		c-12.38-4.17-28.17-6.25-47.37-6.25H181.3v88.37h97.41C296.11,207.58,310.23,204.28,321.09,197.66z"/>
</g>
</svg>
