<?xml version="1.0" encoding="utf-8"?>
<!-- Generator: Adobe Illustrator 24.3.0, SVG Export Plug-In . SVG Version: 6.00 Build 0)  -->
<svg version="1.1" id="Layer_1" xmlns="http://www.w3.org/2000/svg" xmlns:xlink="http://www.w3.org/1999/xlink" x="0px" y="0px"
	 viewBox="0 0 500 500" style="enable-background:new 0 0 500 500;" xml:space="preserve">
<style type="text/css">
	.st0{fill:#FFFFFF;}
</style>
<path class="st0" d="M368.18,238.24c13.47-5.52,23.65-11.61,30.57-18.28c12.37-11.9,18.56-27.64,18.56-47.23
	c0-19.01-6.14-35.33-18.4-48.98c-20.37-22.21-55-33.59-103.87-34.17H101.35v320.84h180.58c20.37,0,39.25-1.45,56.64-4.35
	c17.4-2.9,32.49-8.27,45.29-16.11c11.36-6.82,20.82-15.23,28.39-25.25c11.89-15.08,17.84-32.13,17.84-51.15
	c0-18.42-5.2-34.09-15.61-47.01C404.07,253.63,388.63,244.19,368.18,238.24z M181.3,145.31h87.17c19.2,0,34.99,1.67,47.37,5
	c14.35,4.79,21.53,14.66,21.53,29.6c0,13.5-5.43,22.89-16.28,28.19c-10.86,5.3-24.98,7.94-42.38,7.95H181.3V145.31z M319.19,349.04
	c-9.68,3.78-23.21,5.66-40.59,5.66h-97.3v-85.54h98.64c17.2,0.14,30.55,1.96,40.05,5.44c17.02,6.24,25.54,17.7,25.54,34.39
	C345.53,328.72,336.75,342.07,319.19,349.04z"/>
</svg>
