<?xml version="1.0" encoding="utf-8"?>
<!-- Generator: Adobe Illustrator 24.3.0, SVG Export Plug-In . SVG Version: 6.00 Build 0)  -->
<svg version="1.1" id="Layer_1" xmlns="http://www.w3.org/2000/svg" xmlns:xlink="http://www.w3.org/1999/xlink" x="0px" y="0px"
	 viewBox="0 0 500 500" style="enable-background:new 0 0 500 500;" xml:space="preserve">
<style type="text/css">
	.st0{fill:#FFFFFF;}
</style>
<g>
	<path class="st0" d="M165,415v-80H85c-46.9,0-85-38.1-85-85v250h250C203.1,500,165,461.9,165,415z"/>
	<path class="st0" d="M85,165h80V85c0-46.9,38.1-85,85-85H0v250C0,203.1,38.1,165,85,165z"/>
	<path class="st0" d="M415,335h-80v80c0,46.9-38.1,85-85,85h250V250C500,296.9,461.9,335,415,335z"/>
	<path class="st0" d="M250,0c46.9,0,85,38.1,85,85v80h80c46.9,0,85,38.1,85,85V0H250z"/>
</g>
</svg>
